<svg id="Layer_1" data-name="Layer 1" xmlns="http://www.w3.org/2000/svg" width="40.46mm" height="10.84mm" viewBox="0 0 573.57 153.61">
  <title>Darwin_logo</title>
  <g>
    <path d="M48.17,73.91H82.8c41.93,0,52.16,31.27,52.16,49.64,0,25.38-18.93,49.63-54.4,49.63H48.17V73.91Zm13.46,86.65h17c22.71,0,42.06-12.48,42.06-37,0-12.62-6.59-37-38.84-37H61.63v74Z" transform="translate(-13.56 -19.57)" style="fill: #27282b"/>
    <path d="M226.95,73.91h34.91c25.38,0,31.83,15.28,31.83,27.76s-9.39,24.54-24.4,26.22l28.18,45.29H280.65l-25.24-43.75h-15v43.75H226.95V73.91Zm13.46,43.75h17.67c10.66,0,21.31-2.53,21.31-16s-10.66-16-21.31-16H240.41v32Z" transform="translate(-13.56 -19.57)" style="fill: #27282b"/>
    <path d="M457.54,73.91H471v99.27H457.54V73.91Z" transform="translate(-13.56 -19.57)" style="fill: #27282b"/>
    <path d="M482,73.91h17.67l54.68,81.6h0.28V73.91h13.46v99.27H551l-55.24-81.6h-0.28v81.6H482V73.91Z" transform="translate(-13.56 -19.57)" style="fill: #27282b"/>
    <polygon points="192.89 153.61 208.59 153.61 166.11 54.34 153.91 54.34 110.17 153.61 125.84 153.61 159.24 73.44 159.52 73.44 192.89 153.61" style="fill: #27282b"/>
    <polygon points="419.35 54.34 392.05 129.37 391.81 129.37 362.83 54.34 361.79 54.34 349.19 54.34 348.17 54.34 319.16 129.37 318.92 129.37 291.65 54.34 276.3 54.34 313.2 153.61 323.79 153.61 355.39 71.04 386.08 153.61 396.68 153.61 434.67 54.34 419.35 54.34" style="fill: #27282b"/>
    <path d="M48.17,20.61a1,1,0,0,1,1-1H62.43A12.23,12.23,0,1,1,62.48,44H56.72V56.92a1.08,1.08,0,0,1-1,1H49.21a1,1,0,0,1-1-1V20.61ZM61.94,36a4.31,4.31,0,0,0,4.33-4.33,4.18,4.18,0,0,0-4.33-4.06H56.72V36h5.21Z" transform="translate(-13.56 -19.57)" style="fill: #27282b"/>
    <path d="M97.28,19.57A19.2,19.2,0,1,1,78.13,38.82,19.17,19.17,0,0,1,97.28,19.57Zm0,29.87A10.67,10.67,0,1,0,86.66,38.82,10.69,10.69,0,0,0,97.28,49.44Z" transform="translate(-13.56 -19.57)" style="fill: #27282b"/>
    <path d="M119.2,20.89a1,1,0,0,1,1-1.32h6.42a1.13,1.13,0,0,1,1,.77L132.31,39h0.22L141,20.27a1,1,0,0,1,.93-0.61h1a0.93,0.93,0,0,1,.93.61L152.39,39h0.22l4.72-18.65a1.13,1.13,0,0,1,1-.77h6.42a1,1,0,0,1,1,1.32L155.35,57.2a1.05,1.05,0,0,1-1,.77h-0.88a1.11,1.11,0,0,1-.93-0.6l-10-21.85h-0.16l-10,21.85a1.11,1.11,0,0,1-.93.6h-0.88a1.05,1.05,0,0,1-1-.77Z" transform="translate(-13.56 -19.57)" style="fill: #27282b"/>
    <path d="M171.59,20.61a1,1,0,0,1,1-1h22.71a1,1,0,0,1,1,1v6a1,1,0,0,1-1,1h-15.2v6.8h12.51a1.08,1.08,0,0,1,1,1v6a1,1,0,0,1-1,1H180.15V49.9h15.2a1,1,0,0,1,1,1v6a1,1,0,0,1-1,1H172.63a1,1,0,0,1-1-1V20.61Z" transform="translate(-13.56 -19.57)" style="fill: #27282b"/>
    <path d="M203.74,20.61a1,1,0,0,1,1-1h16.4a11.93,11.93,0,0,1,12,11.85c0,5-3.35,9.11-8.12,11l7.52,13.93A1,1,0,0,1,231.6,58h-7.3a1,1,0,0,1-.88-0.49l-7.3-14.54h-3.79v14a1.08,1.08,0,0,1-1,1h-6.53a1,1,0,0,1-1-1V20.61ZM220.47,36a4.4,4.4,0,0,0,4.17-4.39,4.2,4.2,0,0,0-4.17-4.17h-8.12V36h8.12Z" transform="translate(-13.56 -19.57)" style="fill: #27282b"/>
    <path d="M240.49,20.61a1,1,0,0,1,1-1h22.71a1,1,0,0,1,1,1v6a1,1,0,0,1-1,1H249v6.8h12.51a1.08,1.08,0,0,1,1,1v6a1,1,0,0,1-1,1H249V49.9h15.2a1,1,0,0,1,1,1v6a1,1,0,0,1-1,1H241.53a1,1,0,0,1-1-1V20.61Z" transform="translate(-13.56 -19.57)" style="fill: #27282b"/>
    <path d="M272.64,20.61a1,1,0,0,1,1-1H287A19.2,19.2,0,1,1,287,58H273.63a1,1,0,0,1-1-1V20.61Zm13.83,29.24c6.2,0,10.7-4.88,10.7-11.14s-4.5-11.08-10.7-11.08H281.2V49.85h5.27Z" transform="translate(-13.56 -19.57)" style="fill: #27282b"/>
    <path d="M325.08,20.61a1,1,0,0,1,1-1h12.78c6.47,0,11.8,4.44,11.8,10.2,0,4.22-3.79,7.3-6.37,8.67,2.91,1.21,7.35,3.9,7.35,8.94,0,6.14-5.43,10.59-12,10.59h-13.6a1,1,0,0,1-1-1V20.61Zm12.84,14.54a3.91,3.91,0,0,0,3.84-3.95,3.72,3.72,0,0,0-3.84-3.73h-4.28v7.68h4.28Zm0.71,15a4,4,0,0,0,4-4c0-2.19-2.36-3.84-4.5-3.84h-4.44v7.84h5Z" transform="translate(-13.56 -19.57)" style="fill: #27282b"/>
    <path d="M365.57,39.48L353.44,21.16a1,1,0,0,1,.88-1.59h7.13a1.09,1.09,0,0,1,.88.49L370,31.31l7.63-11.25a1,1,0,0,1,.88-0.49h7.13a1,1,0,0,1,.88,1.59L374.18,39.42v17.5a1.08,1.08,0,0,1-1,1h-6.53a1,1,0,0,1-1-1V39.48Z" transform="translate(-13.56 -19.57)" style="fill: #27282b"/>
    <rect width="7.99" height="153.61" style="fill: #27282b"/>
    <g>
      <path d="M574.94,75.05h-1.8a0.21,0.21,0,0,1-.21-0.21V74.23a0.21,0.21,0,0,1,.21-0.21h4.75a0.21,0.21,0,0,1,.21.21v0.62a0.21,0.21,0,0,1-.21.21h-1.8v6.48a0.22,0.22,0,0,1-.21.21h-0.73a0.22,0.22,0,0,1-.21-0.21V75.05Z" transform="translate(-13.56 -19.57)" style="fill: #27282b"/>
      <path d="M580,74.07a0.22,0.22,0,0,1,.2-0.17h0.18a0.22,0.22,0,0,1,.19.12l2.31,5.64h0L585.2,74a0.21,0.21,0,0,1,.19-0.12h0.18a0.22,0.22,0,0,1,.2.17l1.36,7.42a0.19,0.19,0,0,1-.2.25h-0.72a0.23,0.23,0,0,1-.21-0.15l-0.82-4.94h0l-2,5.08a0.19,0.19,0,0,1-.19.12h-0.2a0.2,0.2,0,0,1-.19-0.12l-2-5.08h0l-0.8,4.94a0.21,0.21,0,0,1-.2.15h-0.72a0.2,0.2,0,0,1-.21-0.25Z" transform="translate(-13.56 -19.57)" style="fill: #27282b"/>
    </g>
  </g>
</svg>
