<?xml version="1.0" encoding="utf-8"?>
<!-- Generator: Adobe Illustrator 19.2.1, SVG Export Plug-In . SVG Version: 6.00 Build 0)  -->
<svg version="1.1" id="Layer_1" xmlns="http://www.w3.org/2000/svg" xmlns:xlink="http://www.w3.org/1999/xlink" x="0px" y="0px"
	 viewBox="0 0 714 181.5" style="enable-background:new 0 0 714 181.5;" xml:space="preserve">
<style type="text/css">
	.st0{fill:#44273A;}
	.st1{fill:#8E8279;}
	.st2{fill:#D51067;}
	.st3{fill:#B7ADA5;}
</style>
<path class="st0" d="M332.6,126.1c-23.6,0-32-19.3-32-35.8c0-16.5,8.4-35.8,32-35.8c23.6,0,32,19.3,32,35.8
	C364.6,106.8,356.2,126.1,332.6,126.1L332.6,126.1z M332.6,62.9c-13.1,0-21.6,10.7-21.6,27.4c0,16.6,8.5,27.4,21.6,27.4
	c13.1,0,21.6-10.7,21.6-27.4C354.2,73.7,345.7,62.9,332.6,62.9L332.6,62.9z"/>
<path class="st0" d="M547.2,126.1c-23.6,0-32-19.3-32-35.8c0-16.5,8.4-35.8,32-35.8c23.6,0,32,19.3,32,35.8
	C579.2,106.8,570.8,126.1,547.2,126.1L547.2,126.1z M547.2,62.9c-13.1,0-21.6,10.7-21.6,27.4c0,16.6,8.5,27.4,21.6,27.4
	c13.1,0,21.6-10.7,21.6-27.4C568.8,73.7,560.3,62.9,547.2,62.9L547.2,62.9z"/>
<path class="st0" d="M479.7,126.2L479.7,126.2c-15.3,0-27.7-12.4-27.7-27.7v-3l0-12.4c0-13.5-5-20.1-15.2-20.1h-0.5
	C426,62.9,421,69.5,421,83v40.8l-0.7,0.7H412l-0.7-0.7V83c0-13.5-5-20.1-15.3-20.1h-0.5c-10.3,0-15.3,6.6-15.3,20.1v40.8l-0.7,0.7
	h-8.3l-0.7-0.7V80.9c0-17.1,8.4-26.5,23.6-26.5h3.4c8.3,0.1,14.5,2.9,18.5,8.4c4-5.6,10.3-8.4,18.8-8.4h3.4
	c15,0.1,23.3,9.5,23.3,26.5v10.7l0,6.3c0,10.8,8.8,19.7,19.7,19.7l3.1,0c6.9,0,14.2-3.5,14.2-11.3c0-7.1-7.1-10.5-14.5-13.9
	c-8.3-3.9-17.7-8.3-17.7-19c0-14,11.6-19,22.5-19c3,0,10.4,0.6,16.8,3.1l0.4,0.7l-0.8,7.2l-1,0.5c-4.1-1.8-9.9-3.1-14.6-3.1
	c-9.4,0-13.8,3.3-13.8,10.5c0,4.9,5.9,7.6,12.7,10.7c9.1,4.1,20.4,9.3,20.4,22.2c0,13.7-12.1,19.8-24.1,19.8L479.7,126.2
	L479.7,126.2z"/>
<path class="st0" d="M653.7,126.2L653.7,126.2c-15.3,0-27.7-12.4-27.7-27.7v-3l0-12.4c0-13.4-5.1-20.1-15.3-20.1h-0.5
	C600,62.9,595,69.5,595,83v40.8l-0.7,0.7H586l-0.7-0.7V80.9c0-17.1,8.4-26.5,23.6-26.5h3.4c15,0.1,23.3,9.5,23.3,26.5v10.7l0,6.3
	c0,10.8,8.8,19.7,19.7,19.7l3.1,0c6.8,0,14.2-3.5,14.2-11.3c0-7.1-7-10.5-14.5-13.9c-8.3-3.9-17.7-8.3-17.7-19c0-14,11.6-19,22.5-19
	c3,0,10.4,0.6,16.8,3.1l0.4,0.7l-0.8,7.2l-1,0.5c-4.1-1.8-9.9-3.1-14.6-3.1c-9.4,0-13.8,3.3-13.8,10.5c0,4.9,5.9,7.6,12.7,10.7
	c9.1,4.1,20.4,9.3,20.4,22.2c0,13.7-12.1,19.8-24.1,19.8L653.7,126.2L653.7,126.2z"/>
<path class="st0" d="M230.3,126.1h-2.9c-16,0-16-11.7-16-23.1V64.5H199l-0.7-0.7v-7.1L199,56h12.5V40.8l0.7-0.7h8.3l0.7,0.7V56h14.6
	l0.7,0.7v7.1l-0.7,0.7h-14.6v42.8c0,6.9,2.8,10.4,8.3,10.4c6.3,0,11.2-5,11.2-11.1v-1.9l0-79.6l0.7-0.7h8.3l0.7,0.7v37.2
	c4.5-6.9,12.8-7.8,20.5-7.8c21.2,0,23.6,16.7,23.6,29.3v40.2l-0.7,0.7h-8.3l-0.7-0.7v-40c0-10.9-1.8-20.9-15.3-20.9
	c-14.2,0-19.2,13.5-19.2,25v18.8C249.8,117.5,241,126,230.3,126.1L230.3,126.1L230.3,126.1z"/>
<g>
	<path class="st1" d="M223.4,160c-1.5,1.5-3.4,2.3-5.6,2.3c-2.2,0-4.1-0.8-5.6-2.3c-2.1-2.1-2.1-4.2-2.1-8.9c0-4.6,0-6.8,2.1-8.9
		c1.5-1.5,3.4-2.3,5.6-2.3c2.2,0,4.1,0.8,5.6,2.3c2.1,2.1,2.1,4.2,2.1,8.9C225.5,155.8,225.5,157.9,223.4,160z M221.6,143.7
		c-1-1-2.3-1.6-3.8-1.6c-1.4,0-2.8,0.6-3.8,1.6c-1.4,1.4-1.5,2.9-1.5,7.5c0,4.6,0.2,6.1,1.5,7.5c1,1,2.3,1.6,3.8,1.6
		c1.4,0,2.8-0.6,3.8-1.6c1.4-1.4,1.5-2.9,1.5-7.5C223.1,146.5,223,145.1,221.6,143.7z"/>
	<path class="st1" d="M260.3,162.1l-11.6-17.6v17.6h-2.3v-21.9h2.2l11.6,17.5v-17.5h2.3v21.9H260.3z"/>
	<path class="st1" d="M284.2,162.1v-21.9h2.3V160h11.2v2.1H284.2z"/>
	<path class="st1" d="M317.3,162.1v-21.9h2.3v21.9H317.3z"/>
	<path class="st1" d="M355.3,162.1l-11.6-17.6v17.6h-2.3v-21.9h2.2l11.6,17.5v-17.5h2.3v21.9H355.3z"/>
	<path class="st1" d="M379.2,162.1v-21.9h13.6v2.1h-11.3v7.7h9.6v2.1h-9.6v7.9h11.3v2.1H379.2z"/>
	<path class="st1" d="M444.6,162.1h-8.5v-21.9h8.2c3.8,0,6.5,2.2,6.5,5.8c0,2.3-1.4,4.1-3.2,4.8c2.1,0.8,3.6,2.6,3.6,5.2
		C451.1,160,448.5,162.1,444.6,162.1z M444.1,142.3h-5.7v7.6h5.7c2.4,0,4.3-1.2,4.3-3.8C448.5,143.4,446.6,142.3,444.1,142.3z
		 M444.4,152h-6v8h6c2.7,0,4.4-1.6,4.4-4C448.8,153.5,447.1,152,444.4,152z"/>
	<path class="st1" d="M472,162.1v-21.9h13.6v2.1h-11.3v7.7h9.6v2.1h-9.6v7.9h11.3v2.1H472z"/>
	<path class="st1" d="M519.8,162.1l-11.6-17.6v17.6h-2.3v-21.9h2.2l11.6,17.5v-17.5h2.3v21.9H519.8z"/>
	<path class="st1" d="M543.7,162.1v-21.9h13.6v2.1h-11.3v7.7h9.6v2.1h-9.6v7.9h11.3v2.1H543.7z"/>
	<path class="st1" d="M579.9,142.3v8.1h9.6v2.1h-9.6v9.7h-2.3v-21.9h13.6v2.1H579.9z"/>
	<path class="st1" d="M610.8,162.1v-21.9h2.3v21.9H610.8z"/>
	<path class="st1" d="M641.3,142.3v19.8h-2.3v-19.8h-6.3v-2.1h15v2.1H641.3z"/>
	<path class="st1" d="M672.7,162.3c-3.3,0-5.4-0.8-7.5-2.9l1.6-1.6c1.8,1.8,3.5,2.4,6,2.4c3.2,0,5.2-1.5,5.2-4.1
		c0-1.1-0.3-2.1-1-2.7c-0.7-0.6-1.3-0.8-2.9-1l-2.6-0.4c-1.7-0.3-3.1-0.8-4-1.7c-1.1-1-1.7-2.3-1.7-4.1c0-3.7,2.7-6.2,7-6.2
		c2.8,0,4.7,0.7,6.5,2.4l-1.5,1.5c-1.4-1.2-2.8-1.9-5.1-1.9c-2.9,0-4.6,1.6-4.6,4.1c0,1.1,0.3,1.9,1,2.5c0.7,0.6,1.8,1,3,1.2
		l2.4,0.4c2.1,0.3,3.1,0.7,4,1.5c1.2,1,1.9,2.5,1.9,4.3C680.3,159.9,677.3,162.3,672.7,162.3z"/>
</g>
<g>
	<path class="st1" d="M157.3,119.4c-18.6,22.9-58.5,21.3-89.1-3.5C37.6,91,27.9,52.3,46.4,29.4c3.8-4.6,8.4-8.2,13.6-10.9l0,0
		C35.1,30.7,17.2,57,17.2,86.6c0,41.4,33.5,74.9,74.9,74.9c35,0,64.4-24,72.6-56.5C163.2,110.2,160.8,115.1,157.3,119.4z"/>
	<path class="st2" d="M70.7,113.6c2.4,2,5,3.8,7.5,5.5c6.6-0.8,24.5-4.1,41.2-18c21.4-17.8,28-45,13.8-61.7c-1-1.1-2-2.2-2.9-3.2
		c-5.1-4.1-10.8-7.4-17.1-9.7c-0.2-0.1-0.4-0.1-0.6-0.2c-0.5-0.2-0.9-0.4-1.4-0.5c-5.8-1.9-12.1-2.9-18.5-2.9
		c-21.6,0-40.6,11.5-51.1,28.7C38.7,71.9,49.4,96.3,70.7,113.6z"/>
	<path class="st3" d="M154.8,58.8C154.8,58.8,154.9,58.8,154.8,58.8c-0.4-1-0.9-2.1-1.5-3.1c-4.4-8.6-9.7-15.1-15.5-20.1
		c3.1,3.2,5.8,7.2,7.7,12.1c10.5,27.1-16.1,65.6-64.3,73.4c25.8,15.3,55.2,15.1,71.4-1.4l2.5-2.6C167.6,101.8,166.6,79.1,154.8,58.8
		z"/>
	<path class="st0" d="M49.9,31.6c-2.5,3.1-4.5,6.6-5.9,10.3C55.5,28,72.9,19.1,92.4,19.1c6.8,0,13.3,1.1,19.4,3.1
		c0.5,0.2,1,0.4,1.5,0.6c0.2,0,0.4,0.1,0.7,0.2c0.6,0.2,1.2,0.5,1.8,0.7c0.2,0.1,0.5,0.1,0.7,0.2C91.3,11.8,64.1,14.2,49.9,31.6z"/>
</g>
</svg>
